<?xml version="1.0" encoding="UTF-8"?><svg id="Calque_2" xmlns="http://www.w3.org/2000/svg" viewBox="0 0 250 250"><defs><style>.cls-1{fill:none;}.cls-2{fill:#e17d2e;}</style></defs><g id="Calque_1-2"><rect class="cls-1" width="250" height="250"/><path class="cls-2" d="m110.7,190.33c-5.73.29-10.74,2.67-14.78,6.8-5.14,5.25-7.67,11.57-6.78,18.94,1.27,10.54,9.99,20.55,22.33,20.68,13.59.14,23.72-9.94,23.93-23.12.17-11.68-9.35-24.08-24.71-23.3Z"/><path class="cls-2" d="m193.59,196.76c-4.66-4.7-10.56-6.62-17.04-6.44-11.77.34-22.08,10.35-22.34,22.88.08,13.88,11.29,23.03,21.77,23.57,13.91.72,25.96-10.58,24.56-25.72-.52-5.62-3.04-10.34-6.94-14.28Z"/><path class="cls-2" d="m216.63,86.29l-22.62,75.28s-.29.74-.9.74c-14.23-.03-78.21-.03-95.97,0-.76,0-1.07-.18-1.28-1.03-3.51-14.11-7.09-28.2-10.63-42.29-.95-3.79-21.24-85.17-26.38-105.78H14.47v18.56c2.18,0,21.6-.04,29.17-.02.31,0,.83.25.89.47,1.06,3.96,36.56,146.07,37.25,148.68h1.38c26.93,0,109.12,0,123.28,0,.73,0,1.3-.01,1.56-.93,1.34-4.77,27.32-91.31,27.53-92.21l-18.89-1.47Z"/></g></svg>