<?xml version="1.0" encoding="UTF-8"?><svg id="Calque_2" xmlns="http://www.w3.org/2000/svg" viewBox="0 0 250 250"><defs><style>.cls-1{fill:none;}.cls-2{fill:#e17d2e;}</style></defs><g id="Calque_1-2"><rect class="cls-1" width="250" height="250"/><path class="cls-2" d="m187.85,120.42c.71-.58,1.43-1.16,2.14-1.74.84-.85,1.69-1.69,2.53-2.54.27-.28.54-.55.81-.83.45-.57.89-1.15,1.34-1.72.11-.1.21-.21.32-.31.21-.2.41-.39.62-.59h0c.51.18,1.24.2,1.5.55,2.72,3.8,5.93,7.06,10.13,9.2,4.29,2.19,8.84,3.24,13.69,2.87,1.09-.08,2.18-.01,3.38-.01v107.85h-26.98c0-.8,0-1.62,0-2.44,0-28.2,0-56.4,0-84.6q0-3.1-3.13-3.1c-15.86,0-31.72-.02-47.59-.02q-3.4,0-3.4,3.31c0,28.13-.02,56.26-.02,84.39,0,.77,0,1.55,0,2.47H26.1c-.03-.45-.08-.91-.08-1.38,0-34.62,0-69.23,0-103.85,0-.56.1-1.11.15-1.67,2.22,0,4.94-.06,6.67-.05s14.7-5.33,18.77-11.33c.8-.89,1.61-1.78,2.24-2.48,2.49,2.57,4.54,5.31,7.18,7.26,2.61,1.93,5.81,3.06,8.74,4.55.42.15.84.3,1.26.44,4.34,1.17,8.68.85,13.01-.08,4.67-1,8.73-3.17,12.05-6.63,1.81-1.89,3.57-3.82,5.46-5.84,4.8,6.89,10.68,11.74,19,12.96.48.4,8.85.4,9.33,0,8.03-1.71,14.14-6.32,18.87-12.97,7.69,10.12,13.08,11.85,19.19,12.97.48.4,8.86.38,9.33-.03l-.04-.16c.16-.1.32-.19.48-.29h-.01c.57-.12,1.13-.25,1.7-.38,2.82-1.27,5.64-2.54,8.46-3.81ZM52.91,196.5l-.32,1c.38-.06.76-.12,1.15-.18.48-.06.96-.18,1.44-.18,19.62,0,39.24,0,58.86,0,.48,0,.96.12,1.45.18.33.11.67.22,1,.33-.06-.38-.12-.76-.18-1.15-.06-.84-.18-1.67-.18-2.51-.01-16.14-.04-32.27.03-48.41,0-2.02-.56-2.64-2.62-2.63-19.38.07-38.75.04-58.13.05-.68,0-1.37.06-2.17.1-.05,1.09-.12,2-.12,2.9,0,16,0,31.99-.01,47.99,0,.84-.11,1.67-.17,2.51Zm-30.16-82.86c2.08,1.45,4.33,2.49,6.92,2.22,2.24-.23,4.46-.69,6.7-1.04,1.37-1.27,2.71-2.58,4.11-3.82,2.95-2.61,3.34-6.13,3.52-9.73.05-1.11.1-2.23.14-3.34-.05-5.07-.12-10.13-.14-15.2-.02-6.2.05-12.4-.04-18.6-.02-1.77.37-2.48,2.32-2.42,5.28.14,10.57.14,15.85,0,1.87-.05,2.21.65,2.21,2.32-.04,13.39,0,26.78.02,40.16.1.06.2.13.31.19-.11.12-.22.25-.33.37.11.55.22,1.1.33,1.66.31.68.63,1.36.94,2.04.25.45.5.9.76,1.36,0,0,.02.02.02.02.43.55.85,1.1,1.28,1.66.14.15.28.31.42.46.68.56,1.37,1.13,2.05,1.69.17.13.33.27.5.4.58.26,1.17.52,1.75.79.27.28.54.56.82.84,3.58.16,7.19.75,10.53-1.22,3.8-2.23,6.6-5.18,7.27-9.73.09-.29.17-.59.26-.88.04-8.38.09-16.76.11-25.14.02-5,.04-10-.02-15-.02-1.41.37-1.99,1.9-1.97,5.49.08,10.99.12,16.48-.01,1.94-.05,1.97.93,1.96,2.34-.02,12.04-.02,24.09-.01,36.13,0,1.34.03,2.68.05,4.01l.31.2c-.12.11-.23.22-.35.33,1.3,5.91,4.78,9.72,10.78,10.96,6.32,1.3,12.37-2.03,14.96-7.65.48-1.03.64-2.21.95-3.32.09-.29.17-.59.26-.88.04-8.38.09-16.77.11-25.15.02-5,.04-10.01-.02-15.01-.02-1.45.42-1.96,1.93-1.94,5.35.08,10.71.12,16.07-.01,1.89-.05,2.38.54,2.37,2.38-.07,12.62-.04,25.23-.03,37.85,0,.77.07,1.55.11,2.32-.02.29-.05.59-.07.88,1.09,3.96,3.17,7.05,6.81,9.26,3.42,2.08,6.9,1.33,10.43,1.16.71-.24,1.42-.48,2.13-.72,1.67-1.58,3.39-3.11,4.98-4.76.64-.66.98-1.6,1.46-2.41.29-.56.57-1.13.86-1.69,0-.56-.01-1.11-.02-1.67.09-.29.18-.59.26-.88.09-1.83.17-3.66.26-5.48-.03-11.57-.07-23.13-.09-34.7,0-1.5.78-1.81,2.05-1.18,2.83,0,5.66,0,8.48,0,.27,0,.55,0,.82,0,2.63-.09,5.27-.23,7.9-.21.33,0,.92.82.93,1.27.05,2.3-.05,4.6-.09,6.9,0,.28,0,.56,0,.85,0,2.68,0,5.36,0,8.04,0,.28,0,.56,0,.85,0,2.82,0,5.64,0,8.46,0,.28,0,.56,0,.85,0,2.68,0,5.36,0,8.04,0,.28,0,.56,0,.85.09,2.11.18,4.22.27,6.33.08.44.17.87.25,1.31.31.96.62,1.93.93,2.89.25.45.51.9.76,1.35l.02.02c.43.55.86,1.1,1.28,1.66.14.15.28.31.42.46.68.56,1.37,1.13,2.05,1.69,1.02.55,1.98,1.29,3.06,1.62,6.59,2.03,13.21-.67,16.55-6.63,1.58-2.83,1.44-5.85.85-9.03-.85-4.67-1.11-9.44-1.79-14.14-1.04-7.18-2.24-14.34-3.35-21.51-.23-1.5-.36-3.01-.6-4.5-.8-4.93-1.63-9.86-2.45-14.79-.27-.26-.53-.52-.8-.77-.56-.03-1.12-.1-1.68-.1-64.64,0-129.28,0-193.93,0-.75,0-1.5.07-2.2.11-.78,4.04-1.65,7.85-2.23,11.7-.83,5.52-1.36,11.07-2.18,16.59-.74,5.01-1.7,9.99-2.52,14.99-.73,4.48-1.53,8.95-2.04,13.45-.3,2.66-.24,5.4,1.23,7.84l.76,1.35.02.02c.43.55.85,1.1,1.28,1.66.14.15.28.31.42.46.68.56,1.37,1.13,2.05,1.69ZM224.62,34.04v-17.21H25.78v10.01c.1,1.83.16,3.66.32,5.48.08.86.37,1.69.56,2.54.69-.06,1.39-.17,2.08-.17,64.04,0,128.07,0,192.11,0,.98,0,1.95.12,2.93.19.28-.28.56-.56.84-.84Z"/></g></svg>