<?xml version="1.0" encoding="UTF-8"?><svg id="Calque_2" xmlns="http://www.w3.org/2000/svg" viewBox="0 0 250 250"><defs><style>.cls-1{fill:none;}.cls-2{fill:#e17d2e;}</style></defs><g id="Calque_1-2"><rect class="cls-1" width="250" height="250"/><path class="cls-2" d="m115.81,204.51c-.94-.05-1.88-.15-2.82-.15-25.73,0-51.46,0-77.19,0-4.63,0-9.04-.77-12.93-3.49-5.07-3.55-8.91-8.03-9.36-14.43-.44-6.29-.47-12.61-.48-18.91-.04-33.25-.02-66.5-.02-99.75,0-3.81.62-7.49,2.63-10.8,3.63-5.98,8.71-9.91,15.74-11.05,2.49-.15,4.97-.29,7.46-.44.78.08,1.56.24,2.35.24,56.67.01,113.35.01,170.02,0,.71,0,1.42-.16,2.13-.24,1.76.28,3.52.56,5.28.83,8.07.64,16.77,8.57,17.49,16.92.31,3.64.83,7.28.84,10.93.06,35.57.07,71.14,0,106.71-.01,5.6-1.19,11.08-4.94,15.43-3.59,4.17-8.06,7.19-13.81,7.67-.31.08-.61.16-.92.25-9.38.04-18.76.12-28.14.13-20.95.02-41.9,0-62.85.01-.72,0-1.44.09-2.16.15h-8.31Zm102.26-20.71c.09-.35.17-.7.26-1.05.02-17.6.05-35.2.06-52.8,0-6.11-.06-12.21-.09-18.32.14-.3.28-.59.42-.89-.35.1-.69.19-1.04.29-.65-.03-1.31-.09-1.96-.09-57.96,0-115.92,0-173.88,0-.71,0-1.42.15-2.14.24-2.45-.01-4.89-.03-7.34-.04-.2.33-.4.65-.6.98-.06.5-.16,1-.16,1.5,0,22.38,0,44.75,0,67.13,0,.56.16,1.13.24,1.69-.15,2.38.76,3.28,3.05,3.04.78.09,1.56.27,2.34.27,58.65.01,117.29.01,175.94,0,.78,0,1.57-.15,2.35-.23.59-.29,1.17-.57,1.76-.86.14-.15.28-.3.43-.45.11-.14.23-.28.34-.42ZM31.23,82.26l1.03.53c.94.04,1.89.11,2.83.11,33.66,0,67.31,0,100.97,0,26.52,0,53.03-.02,79.55.04,2.19,0,2.92-.58,2.84-2.83-.16-4.44-.03-8.88-.03-13.33-.22-.39-.43-.78-.65-1.17-.07-.1-.1-.21-.09-.34-.4-1.49-.57-1.57-1.72-.87-8.89-.03-17.77-.09-26.66-.09-50.92,0-101.85,0-152.77,0-4.42,0-4.9.52-4.93,5.05-.01,1.95-.11,3.91-.17,5.86-.07,2.34-.14,4.68-.2,7.01Zm81.36,56.63c.78-.04,1.57-.12,2.35-.19,0-2.9,0-5.8-.01-8.69v-.45c-.78.07-1.57.2-2.36.2-19.93.01-39.87.01-59.8,0-.57,0-1.15-.11-1.72-.17.03.09.08.18.1.28,0,.05-.02.1-.04.15,0,2.89,0,5.79,0,8.68-.02.14-.04.28-.06.42.43-.06.86-.16,1.29-.16,17.6,0,35.21,0,52.81,0,.49,0,.98.15,1.48.23,1.99-.1,3.98-.2,5.98-.31Z"/></g></svg>