<?xml version="1.0" encoding="UTF-8"?><svg id="Calque_2" xmlns="http://www.w3.org/2000/svg" viewBox="0 0 250 250"><defs><style>.cls-1{fill:none;}.cls-2{fill:#e17d2e;}</style></defs><g id="Calque_1-2"><rect class="cls-1" width="250" height="250"/><path class="cls-2" d="m30.57,72.58c1.42-1.92,2.85-3.83,4.27-5.75,1.49-2.03,2.98-4.06,4.47-6.09.85-1.18,1.69-2.36,2.54-3.54.19-.28.38-.57.57-.85,1.3-1.75,2.61-3.51,3.91-5.26,1.28-1.47,2.56-2.93,4.04-4.63.82,1.04,1.54,1.9,2.21,2.79,2.99,4,5.99,7.98,8.94,12.01,2.82,3.85,5.58,7.75,8.39,11.61,1.11,1.52,2.3,2.98,3.46,4.47.9,1.33,1.75,2.69,2.7,3.99,3.32,4.53,6.67,9.04,10.01,13.56v2.03c-2.61.07-5.23.15-7.84.22h-10.06c-2.38-.05-4.76-.14-7.13-.09-.46.01-1.31.62-1.31.96-.03,2.43.12,4.87.21,7.3,0,.29,0,.57,0,.86,0,2.92,0,5.84,0,8.76v.86c0,2.78,0,5.55,0,8.33v.86c0,2.78,0,5.55,0,8.33,0,.71.02,1.42.03,2.13,0,.46,0,.93,0,1.39-.05.71-.11,1.42-.16,2.13.19,1.17.38,2.35.56,3.52.11.73.22,1.47.33,2.2.73,2.62,1.47,5.25,2.2,7.87l.1.43c.54,1.32,1.07,2.64,1.61,3.96.16.68.19,1.44.51,2.03,3.39,6.08,7.16,11.87,12.63,16.34.14.15.27.3.41.45,1.36,1.22,2.73,2.44,4.09,3.67h0c1.8,1.09,3.6,2.18,5.41,3.26h0c1.82,1.01,3.63,2.02,5.45,3.04.58.29,1.17.58,1.75.87.29.04.57.08.86.11.59.25,1.18.51,1.77.76,2.62.73,5.25,1.45,7.87,2.18.73.14,1.46.29,2.19.43.58.14,1.16.29,1.74.43.72-.02,1.44-.04,2.17-.07.62-.07,1.25-.13,1.87-.2.38-.08.76-.16,1.15-.24,3.24.02,6.47.03,9.71.05.28,0,.57,0,.85,0,.7.11,1.4.3,2.1.3,5.02.03,10.04.04,15.06,0,3.19-.02,6.38-.12,9.57-.19,0,0,.09.18.09.18l.19-.07.58.2c.16.18.32.35.48.53.14.35.28.7.42,1.05.01.13.08.2.21.22.8,1.09,1.6,2.18,2.41,3.28.01.14.09.22.23.23.62.91,1.25,1.82,1.87,2.73.92,1.24,1.83,2.48,2.75,3.73,1.43,1.94,2.85,3.88,4.28,5.83l-.46.78c-.86.08-1.73.16-2.59.24h-38.06c-2.77,0-5.54,0-8.31,0-.29,0-.58,0-.87,0-2.77-.17-5.54-.33-8.31-.5-2.48-.44-4.96-.88-7.44-1.33-.58-.03-1.16-.07-1.74-.1-.44-.15-.87-.3-1.31-.45-2.19-.73-4.37-1.46-6.56-2.19-1.75-.72-3.5-1.44-5.26-2.16-1.17-.58-2.33-1.17-3.5-1.75-1.67-.99-3.35-1.98-5.02-2.97-.36-.18-.72-.37-1.08-.55-2.19-1.61-4.39-3.21-6.58-4.82-.13-.14-.27-.27-.4-.41-.45-.47-.9-.94-1.34-1.4-.74-.69-1.48-1.37-2.22-2.06-.88-.88-1.76-1.75-2.63-2.63-.69-.74-1.39-1.48-2.08-2.21-.46-.45-.92-.9-1.38-1.35-.18-.28-.37-.55-.55-.83-1.27-1.61-2.55-3.23-3.82-4.84,0,0,.01.01.01.01-.3-.45-.59-.9-.89-1.34-.03-.15-.07-.29-.1-.44-1.13-1.89-2.27-3.77-3.4-5.66h.01c-.59-1.16-1.17-2.33-1.76-3.5h.01c-.15-.29-.3-.6-.44-.9-.32-.86-.65-1.71-.97-2.57-.25-.59-.5-1.18-.75-1.77-.62-2.03-1.25-4.07-1.87-6.1-.25-.74-.49-1.47-.74-2.21-.33-1.89-.67-3.77-1-5.66-.13-2.33-.26-4.65-.39-6.98-.09-.31-.18-.63-.27-.94l-.31-4.33c0-.29,0-.58,0-.87,0-2.77,0-5.54,0-8.31v-18.81c0-.29,0-.58,0-.87,0-2.48,0-4.96,0-7.44-.24-.24-.48-.49-.72-.73h-8.31c-.29,0-.58,0-.87,0h-8.75c-.29,0-.58,0-.87,0-2.34-.08-4.67-.16-7.01-.24,0-.57-.02-1.13-.02-1.7.76-1.15,1.53-2.3,2.29-3.45,0,0,.13-.07.13-.07.44-.59.88-1.18,1.32-1.77l.13-.15c.63-.94,1.26-1.87,1.9-2.81.29-.44.58-.88.87-1.31.88-1.16,1.76-2.33,2.65-3.49.13-.28.26-.57.39-.85.35-.33.71-.66,1.06-1,0,0,0,0,0,0,.68-.99,1.37-1.97,2.05-2.96,1.15-1.59,2.31-3.18,3.46-4.77Zm152.11,108.65c.77,1.08,1.54,2.16,2.31,3.24h-.01c1.32,1.89,2.64,3.79,3.97,5.69.13.14.27.27.4.41.88,1.18,1.76,2.35,2.64,3.53h-.01c1.46,2.03,2.93,4.07,4.39,6.12h-.01c.58.72,1.17,1.46,1.75,2.2h-.01c.5.26.99.53,1.72.93,2.16-2.84,4.34-5.72,6.52-8.59,2.13-2.81,4.27-5.61,6.41-8.42h0c3.8-5.3,7.57-10.6,11.4-15.88,1.65-2.28,3.39-4.49,5.08-6.73l.14-.13c.93-1.4,1.85-2.81,2.79-4.2.74-1.1,1.51-2.19,2.26-3.28.27-.32.54-.63.8-.95.14-.17.28-.34.43-.51,0-.52.01-1.05.02-1.57-2.61-.08-5.23-.16-7.84-.25h-10.5c-2.48,0-4.96,0-7.43,0-.24-.24-.49-.48-.73-.73,0-2.77,0-5.54,0-8.31v-19.68c0-2.77,0-5.54,0-8.31v-.88c-.09-.28-.16-.56-.24-.84l-.37-1.78c.03-.44.06-.89.09-1.33-.14-1.31-.28-2.61-.41-3.92-.3-2.63-.6-5.25-.89-7.88-.29-.73-.57-1.46-.86-2.19-.15-.44-.3-.88-.45-1.31-.58-2.04-1.17-4.08-1.75-6.12-.77-1.89-1.55-3.78-2.32-5.66-.1-.15-.2-.31-.31-.46-.39-.59-.81-1.16-1.17-1.76-1.91-3.2-3.72-6.46-5.73-9.6-1.26-1.98-2.8-3.79-4.21-5.68-2.32-2.32-4.64-4.65-6.96-6.97-.71-.58-1.43-1.16-2.14-1.74-1.79-1.21-3.55-2.47-5.39-3.61-3.13-1.94-6.31-3.8-9.46-5.7-1.46-.58-2.92-1.17-4.37-1.75-.58-.29-1.17-.58-1.75-.87-2.05-.68-4.1-1.37-6.15-2.05-.72-.05-1.44-.09-2.16-.14-1.9-.44-3.79-.88-5.69-1.31-2.48-.28-4.95-.56-7.43-.84-1.26.75-2.47,1.03-3.54-.32-.43-.08-.86-.16-1.28-.24-.29,0-.58,0-.87,0-2.77,0-5.54,0-8.31,0-.29,0-.58,0-.87,0-2.77,0-5.54,0-8.31,0-.29,0-.58,0-.87,0-2.92,0-5.83,0-8.75,0-.29,0-.58,0-.87,0-2.77,0-5.54,0-8.31,0-.29,0-.58,0-.87,0-2.77,0-5.54,0-8.31,0-.29,0-.58,0-.87,0-.57.08-1.15.16-1.72.25-.14.4-.28.81-.42,1.21.87,1.3,1.73,2.6,2.6,3.9.88,1.32,1.77,2.65,2.65,3.97,2.05,2.77,4.09,5.54,6.14,8.3.7.46,1.4.91,2.1,1.37,2.35.02,4.69.03,7.04.05.29,0,.57,0,.86,0,2.92,0,5.85,0,8.77,0,.29,0,.57,0,.86,0,2.78,0,5.55,0,8.33,0,.29,0,.57,0,.86,0,2.78,0,5.55,0,8.33,0,1.61-.04,3.22-.07,4.84-.11.06-.07.12-.14.18-.22.03.1.06.2.09.29.18.03.37.07.55.1.44.1.88.19,1.32.29.73.02,1.46.04,2.19.07.74.25,1.47.5,2.21.75,1.89.48,3.78.96,5.67,1.44,1.02.26,2.05.51,3.07.77.73.29,1.46.58,2.19.87l1.78.88s-.02-.02-.02-.02c.59.3,1.18.59,1.77.89h-.01c2.48,1.46,4.97,2.92,7.45,4.39.28.18.55.36.83.54.89.69,1.78,1.39,2.66,2.08h-.01c.64.46,1.29.94,1.93,1.42l.14.15.73.73.14.14c.33.36.66.72.99,1.07.14.14.29.29.43.43.15.28.3.56.45.84,1.9,2.34,3.81,4.68,5.71,7.03.88,1.45,1.75,2.91,2.63,4.36l-.02-.02c.59,1.17,1.18,2.35,1.77,3.52.43,1.02.87,2.04,1.3,3.07.26.59.51,1.18.77,1.77.73,2.62,1.45,5.25,2.18,7.87.14.73.29,1.46.43,2.19.12,2.21.24,4.42.35,6.63.02,3.33.04,6.67.06,10,0,.28,0,.57,0,.85.11,1.57.32,3.15.3,4.72-.05,4.41-.19,8.82-.3,13.24,0,.28,0,.57,0,.85.14,2.98.28,5.97.42,9.04h-10.38c-2.77,0-5.54,0-8.31,0h-.88c-2.47.08-4.94.17-7.4.25-.16.26-.32.52-.49.79.13.37.25.74.38,1.11h0c.29.36.59.71.88,1.07.08.11.11.24.1.38.59.74,1.18,1.48,1.77,2.23.83,1.17,1.67,2.34,2.5,3.52.18.28.36.55.54.83,2.16,2.93,4.31,5.86,6.47,8.8,1.2,1.59,2.4,3.17,3.6,4.76,1.13,1.56,2.26,3.11,3.39,4.67h0Z"/></g></svg>