<?xml version="1.0" encoding="UTF-8"?>
<svg id="Calque_2" data-name="Calque 2" xmlns="http://www.w3.org/2000/svg" xmlns:xlink="http://www.w3.org/1999/xlink" viewBox="0 0 579.5 150.89">
  <defs>
    <style>
      .cls-1 {
        fill: none;
      }

      .cls-2 {
        clip-path: url(#clippath);
      }

      .cls-3 {
        fill: #7bccad;
      }

      .cls-4 {
        fill: #a7ddc8;
      }

      .cls-5 {
        fill: #40b688;
      }

      .cls-6 {
        fill: #113b6e;
      }

      .cls-7 {
        fill: #5dc19b;
      }
    </style>
    <clipPath id="clippath">
      <path class="cls-1" d="M58.33,0h-14.01C19.84,0,0,19.84,0,44.32v56.26H58.81c27.78,0,50.3-22.53,50.29-50.32-.01-27.84-22.93-50.26-50.77-50.26"/>
    </clipPath>
  </defs>
  <g id="Calque_1-2" data-name="Calque 1">
    <g>
      <g>
        <path class="cls-7" d="M0,150.89H11.72c22.45,0,40.64-18.2,40.64-40.64h0s-52.35,0-52.35,0v40.64Z"/>
        <g class="cls-2">
          <path class="cls-4" d="M58.33,0h-14.01c-11.2,0-21.42,4.15-29.23,11,38.47,8.49,67.89,41.1,71.58,81.16,13.53-9.02,22.44-24.42,22.43-41.9-.01-27.84-22.93-50.26-50.77-50.26"/>
          <path class="cls-3" d="M15.1,11C6.6,18.45,.99,29.1,.12,41.07c29.93,3.34,53.2,28.7,53.25,59.51h5.45c10.3,0,19.88-3.1,27.86-8.42C82.99,52.1,53.57,19.49,15.1,11"/>
          <path class="cls-7" d="M.12,41.07c-.08,1.08-.12,2.16-.12,3.25v23.47c13.06,5.17,22.31,17.89,22.35,32.78h31.02c-.05-30.81-23.32-56.17-53.25-59.51"/>
          <path class="cls-5" d="M0,67.8v32.78H22.35c-.04-14.89-9.29-27.61-22.35-32.78"/>
        </g>
      </g>
      <g>
        <path class="cls-6" d="M179.11,101.75c-5.21,0-9.83-1.18-13.84-3.55-4.02-2.37-7.14-5.49-9.36-9.38v38.95h-17.05V33.94h15v11.52c2.56-3.89,5.81-6.95,9.74-9.19,3.93-2.24,8.42-3.36,13.46-3.36,4.53,0,8.69,.89,12.5,2.66,3.8,1.77,7.13,4.25,10,7.42,2.86,3.17,5.06,6.82,6.6,10.97,1.54,4.14,2.31,8.54,2.31,13.18,0,6.42-1.26,12.25-3.78,17.5-2.52,5.24-5.98,9.4-10.38,12.49-4.4,3.08-9.47,4.63-15.19,4.63Zm-5.77-14.61c2.56,0,4.94-.54,7.11-1.63,2.18-1.09,4.04-2.56,5.58-4.4s2.73-4,3.59-6.48c.85-2.47,1.28-5.01,1.28-7.61s-.45-5.22-1.35-7.61c-.9-2.39-2.2-4.46-3.91-6.22-1.71-1.76-3.7-3.14-5.96-4.15-2.27-1.01-4.76-1.51-7.5-1.51-1.54,0-3.14,.27-4.81,.81-1.67,.54-3.27,1.31-4.81,2.31s-2.86,2.15-3.97,3.44c-1.11,1.29-2.01,2.77-2.69,4.43v15.59c1.11,2.42,2.54,4.63,4.29,6.64,1.75,2,3.78,3.57,6.09,4.69,2.31,1.13,4.66,1.69,7.05,1.69Z"/>
        <path class="cls-6" d="M258.32,48.17c-5.3,.09-10,1.09-14.1,3.01-4.1,1.92-7.09,4.76-8.97,8.52v40.76h-17.05V33.94h15.77v13.72c2.39-4.61,5.45-8.25,9.17-10.9,3.72-2.65,7.63-4.1,11.73-4.36,.85,.09,1.54,.11,2.05,.06,.51-.04,.98,.02,1.41,.19v15.51Z"/>
        <path class="cls-6" d="M296.01,101.75c-5.47,0-10.36-.93-14.68-2.79-4.32-1.86-8.01-4.39-11.09-7.61-3.08-3.21-5.41-6.87-6.99-10.96-1.58-4.1-2.37-8.43-2.37-12.99s.79-9.17,2.37-13.31c1.58-4.14,3.89-7.8,6.92-10.96,3.03-3.17,6.73-5.66,11.09-7.48,4.36-1.82,9.23-2.73,14.61-2.73s10.49,.91,14.8,2.73c4.31,1.82,8.01,4.31,11.09,7.48,3.08,3.17,5.43,6.82,7.05,10.96,1.62,4.14,2.44,8.58,2.44,13.31s-.81,8.89-2.44,12.99c-1.62,4.1-3.97,7.75-7.05,10.96-3.08,3.21-6.77,5.75-11.09,7.61-4.32,1.86-9.21,2.79-14.68,2.79Zm-17.56-34.36c0,3.77,.77,7.17,2.31,10.19,1.54,3.02,3.65,5.37,6.35,7.04,2.69,1.68,5.66,2.51,8.91,2.51s6.2-.86,8.84-2.58c2.65-1.72,4.76-4.06,6.35-7.04,1.58-2.98,2.37-6.39,2.37-10.25s-.79-7.15-2.37-10.12c-1.58-2.98-3.7-5.32-6.35-7.04-2.65-1.72-5.64-2.58-8.97-2.58s-6.2,.86-8.84,2.58c-2.65,1.72-4.74,4.07-6.28,7.04-1.54,2.98-2.31,6.39-2.31,10.25Z"/>
        <path class="cls-6" d="M356.51,100.47l-24.74-66.53h17.69l17.18,51.04,16.92-51.04h16.28l-24.74,66.53h-18.59Z"/>
        <path class="cls-6" d="M435.73,101.75c-5.47,0-10.36-.93-14.68-2.79-4.32-1.86-8.01-4.39-11.09-7.61-3.08-3.21-5.41-6.87-6.99-10.96-1.58-4.1-2.37-8.43-2.37-12.99s.79-9.17,2.37-13.31c1.58-4.14,3.89-7.8,6.92-10.96,3.03-3.17,6.73-5.66,11.09-7.48,4.36-1.82,9.23-2.73,14.61-2.73s10.49,.91,14.8,2.73c4.31,1.82,8.01,4.31,11.09,7.48,3.08,3.17,5.43,6.82,7.05,10.96,1.62,4.14,2.44,8.58,2.44,13.31s-.81,8.89-2.44,12.99c-1.62,4.1-3.97,7.75-7.05,10.96-3.08,3.21-6.77,5.75-11.09,7.61-4.32,1.86-9.21,2.79-14.68,2.79Zm-17.56-34.36c0,3.77,.77,7.17,2.31,10.19,1.54,3.02,3.65,5.37,6.34,7.04,2.69,1.68,5.66,2.51,8.91,2.51s6.2-.86,8.84-2.58c2.65-1.72,4.76-4.06,6.35-7.04,1.58-2.98,2.37-6.39,2.37-10.25s-.79-7.15-2.37-10.12c-1.58-2.98-3.7-5.32-6.35-7.04-2.65-1.72-5.64-2.58-8.97-2.58s-6.2,.86-8.84,2.58c-2.65,1.72-4.74,4.07-6.28,7.04-1.54,2.98-2.31,6.39-2.31,10.25Z"/>
        <path class="cls-6" d="M480.34,6.89h17.18V79.03c0,3.17,.51,5.3,1.54,6.37s2.39,1.61,4.1,1.61c1.54,0,3.01-.17,4.42-.51,1.41-.34,2.67-.81,3.78-1.41l2.31,13.2c-2.31,1.11-4.98,1.97-8.01,2.56-3.03,.6-5.83,.9-8.4,.9-5.38,0-9.55-1.43-12.5-4.31-2.95-2.87-4.42-6.92-4.42-12.15V6.89Z"/>
        <path class="cls-6" d="M519.77,113.54c1.54,.34,2.97,.62,4.29,.83,1.32,.21,2.46,.36,3.4,.45,1.62,0,2.97-.4,4.04-1.21,1.07-.81,2.12-2.24,3.14-4.3,1.03-2.07,2.09-4.95,3.2-8.65l-26.53-66.72h17.82l18.07,49.27,15.89-49.27h16.41l-28.2,79.96c-1.03,2.97-2.58,5.66-4.68,8.09-2.09,2.42-4.68,4.33-7.75,5.73-3.08,1.4-6.58,2.1-10.51,2.1-1.37,0-2.74-.11-4.1-.32-1.37-.21-2.86-.62-4.49-1.22v-14.74Z"/>
      </g>
    </g>
  </g>
</svg>